External Loads File
version=1
nRows=85
nColumns=13
Range=5.000000e-03-10 seconds
endheader
time 	forceRightX 	forceRightY 	forceRightZ 	pointRightX 	pointRightY 	pointRightZ 	forceLeftX 	forceLeftY 	forceLeftZ 	pointLeftX 	pointLeftY 	pointLeftZ 		
7.505000 -15.198519 -56.519365 -0.000000 0.112090 0.428882 -0.164402 -81.841867 548.949742 -0.000000 0.337713 0.213839 -0.405400
7.510000 -29.359558 -66.592512 -0.000000 0.118926 0.437914 -0.164689 -64.753121 548.879342 -0.000000 0.331859 0.205584 -0.405113
7.515000 -42.750973 -75.720270 -0.000000 0.126509 0.445992 -0.164654 -47.526143 549.141431 -0.000000 0.325486 0.197661 -0.404881
7.520000 -55.182757 -83.394807 -0.000000 0.134285 0.453718 -0.164567 -30.157815 549.730845 -0.000000 0.318599 0.190243 -0.404733
7.525000 -66.341445 -89.109730 -0.000000 0.141476 0.461077 -0.165868 -13.527360 550.463898 -0.000000 0.311236 0.183151 -0.404635
7.530000 -76.507244 -91.869574 -0.000000 0.150227 0.468110 -0.165521 5.163356 551.059374 -0.000000 0.303408 0.176658 -0.404486
7.535000 -84.877084 -91.545291 -0.000000 0.158342 0.474033 -0.166136 22.175332 550.974405 -0.000000 0.295243 0.170693 -0.404394
7.540000 -91.609053 -87.374223 -0.000000 0.166910 0.479612 -0.166195 39.823509 549.529687 -0.000000 0.286702 0.165206 -0.404324
7.545000 -96.297016 -79.308821 -0.000000 0.175618 0.484675 -0.166275 57.172978 545.896137 -0.000000 0.277902 0.160496 -0.404170
7.550000 -98.715095 -67.473800 -0.000000 0.184519 0.489149 -0.166387 74.293699 539.075774 -0.000000 0.268874 0.156465 -0.404006
7.555000 -98.670566 -52.387332 -0.000000 0.193493 0.492988 -0.166488 90.810420 528.076625 -0.000000 0.259702 0.153088 -0.403786
7.560000 -96.164015 -34.802238 -0.000000 0.202381 0.496366 -0.166624 106.383706 511.985140 -0.000000 0.250357 0.150515 -0.403503
7.565000 -91.405025 -15.606260 -0.000000 0.211125 0.499165 -0.166744 120.501407 490.118251 -0.000000 0.240977 0.148582 -0.403181
7.570000 -84.821694 4.378261 -0.000000 0.219645 0.501511 -0.166884 132.806888 462.066907 -0.000000 0.231530 0.147482 -0.402784
7.575000 -76.999281 24.416030 -0.000000 0.227925 0.502939 -0.166918 142.729663 427.878149 -0.000000 0.222194 0.147213 -0.402395
7.580000 -68.600533 44.030878 -0.000000 0.236045 0.503824 -0.167025 150.167827 387.930660 -0.000000 0.212918 0.147620 -0.401964
7.585000 -60.371705 62.871307 -0.000000 0.243915 0.503944 -0.166790 154.504775 343.280398 -0.000000 0.203903 0.148718 -0.401667
7.590000 -52.962663 80.991297 -0.000000 0.251621 0.503384 -0.166530 155.899914 295.124231 -0.000000 0.194914 0.150505 -0.401381
7.595000 -47.088142 98.635403 -0.000000 0.259106 0.501886 -0.166055 153.964239 245.303549 -0.000000 0.186373 0.152894 -0.401078
7.600000 -43.215035 116.434271 -0.000000 0.266389 0.499506 -0.165497 149.144482 195.551457 -0.000000 0.178088 0.155857 -0.400773
7.605000 -41.721679 135.146558 -0.000000 0.273475 0.496520 -0.164821 141.877734 147.711514 -0.000000 0.169998 0.159431 -0.400516
7.610000 -42.814628 155.542496 -0.000000 0.280311 0.492537 -0.164197 132.744842 103.459814 -0.000000 0.162120 0.163672 -0.400244
7.615000 -46.603201 178.193911 -0.000000 0.286955 0.487826 -0.163499 122.320992 64.268263 -0.000000 0.154465 0.168369 -0.400042
7.620000 -53.068768 203.330221 -0.000000 0.293271 0.482306 -0.163003 111.209359 31.241432 -0.000000 0.147065 0.173555 -0.399851
7.625000 -61.912483 230.809709 -0.000000 0.299404 0.476043 -0.162445 99.992764 4.967916 -0.000000 0.139882 0.179230 -0.399715
7.630000 -72.844311 260.074806 -0.000000 0.305246 0.468950 -0.161991 89.144795 -14.332358 -0.000000 0.132969 0.185412 -0.399684
7.635000 -85.391949 290.281046 -0.000000 0.311068 0.461445 -0.161934 79.071052 -26.884826 -0.000000 0.126320 0.192069 -0.399610
7.640000 -98.888411 320.420582 -0.000000 0.317128 0.453446 -0.161876 70.098767 -33.265482 -0.000000 0.120038 0.199077 -0.399568
7.645000 -112.769294 349.412850 -0.000000 0.322965 0.444763 -0.161886 62.517265 -34.274278 -0.000000 0.114017 0.206464 -0.399856
7.650000 -126.895202 376.184173 -0.000000 0.328136 0.435586 -0.161401 56.574743 -30.864374 -0.000000 0.108486 0.214329 -0.399884
7.655000 -140.087941 400.288738 -0.000000 0.333604 0.426216 -0.161467 52.303087 -24.298016 -0.000000 0.103418 0.222506 -0.400098
7.660000 -151.999208 421.361058 -0.000000 0.338210 0.416221 -0.161233 49.676133 -15.728961 -0.000000 0.098794 0.231236 -0.400167
7.665000 -161.915203 439.509626 -0.000000 0.342709 0.405738 -0.160931 48.502879 -6.268196 -0.000000 0.094703 0.240129 -0.400170
7.670000 -170.325882 454.699704 -0.000000 0.346698 0.395448 -0.160512 48.500184 3.311118 -0.000000 0.091083 0.249345 -0.400099
7.675000 -176.519215 467.595302 -0.000000 0.350274 0.385107 -0.160338 49.303043 12.318567 -0.000000 0.088092 0.259005 -0.400002
7.680000 -180.757664 478.716883 -0.000000 0.353436 0.374717 -0.160117 50.550946 20.345910 -0.000000 0.085576 0.268771 -0.400050
7.685000 -182.699169 488.932425 -0.000000 0.356025 0.364156 -0.159841 51.953048 27.048586 -0.000000 0.083596 0.278816 -0.400053
7.690000 -182.233753 498.998173 -0.000000 0.358149 0.353303 -0.159492 53.307488 32.184373 -0.000000 0.082193 0.289018 -0.400070
7.695000 -179.455765 509.419065 -0.000000 0.359758 0.342244 -0.159102 54.462180 35.569928 -0.000000 0.081425 0.299341 -0.399981
7.700000 -174.401234 520.417416 -0.000000 0.360890 0.331332 -0.158710 55.252272 37.028064 -0.000000 0.081081 0.309927 -0.399936
7.705000 -166.968221 531.930563 -0.000000 0.361440 0.320473 -0.158304 55.468733 36.388947 -0.000000 0.080838 0.320601 -0.399236
7.710000 -156.725287 543.761292 -0.000000 0.361463 0.309565 -0.158011 54.923288 33.532513 -0.000000 0.081629 0.331370 -0.399186
7.715000 -143.587411 555.457093 -0.000000 0.360912 0.298717 -0.157403 53.448901 28.532618 -0.000000 0.083107 0.342285 -0.399292
7.720000 -128.403029 566.249244 -0.000000 0.359620 0.288085 -0.157498 50.888289 21.743768 -0.000000 0.085011 0.353089 -0.399408
7.725000 -110.678821 575.683749 -0.000000 0.358253 0.277635 -0.156552 47.231508 13.564537 -0.000000 0.087358 0.364280 -0.399203
7.730000 -92.416453 582.857295 -0.000000 0.355544 0.267493 -0.157278 42.518502 4.684601 -0.000000 0.090245 0.374672 -0.399142
7.735000 -71.697999 587.701038 -0.000000 0.352662 0.257092 -0.157070 36.980019 -4.557726 -0.000000 0.093939 0.385142 -0.399058
7.740000 -50.290856 589.676308 -0.000000 0.349071 0.247041 -0.156886 30.855569 -13.652363 -0.000000 0.098135 0.395536 -0.399013
7.745000 -29.626730 588.664936 -0.000000 0.344913 0.237504 -0.156774 24.428967 -22.238800 -0.000000 0.102797 0.405578 -0.398998
7.750000 -9.829754 584.917712 -0.000000 0.340292 0.228140 -0.156696 17.898790 -30.055128 -0.000000 0.107887 0.415242 -0.398911
7.755000 8.762671 578.829855 -0.000000 0.335105 0.219242 -0.156668 11.415281 -36.833665 -0.000000 0.113477 0.424742 -0.398928
7.760000 25.527746 570.923451 -0.000000 0.329401 0.210725 -0.156404 5.113856 -42.329547 -0.000000 0.119484 0.433824 -0.398814
7.765000 41.138921 561.686575 -0.000000 0.323266 0.202597 -0.156277 -1.029806 -46.310958 -0.000000 0.126456 0.442512 -0.399215
7.770000 53.806386 551.706845 -0.000000 0.316606 0.194851 -0.156071 -6.903626 -48.494130 -0.000000 0.132973 0.450786 -0.398475
7.775000 64.956188 541.266710 -0.000000 0.309495 0.187614 -0.155843 -12.655691 -48.536964 -0.000000 0.139999 0.458609 -0.398225
7.780000 75.555087 530.492726 -0.000000 0.301948 0.180898 -0.155537 -18.345207 -46.042889 -0.000000 0.147976 0.465884 -0.399064
7.785000 84.174421 519.746540 -0.000000 0.293973 0.174554 -0.155376 -23.721995 -40.736421 -0.000000 0.155688 0.472403 -0.398596
7.790000 92.345337 508.894454 -0.000000 0.285624 0.169071 -0.155096 -28.697442 -32.356664 -0.000000 0.163933 0.478482 -0.398884
7.795000 100.076212 497.905494 -0.000000 0.276844 0.163984 -0.154844 -32.970957 -20.897597 -0.000000 0.172298 0.483847 -0.398735
7.800000 107.458310 486.645522 -0.000000 0.267753 0.159661 -0.154620 -36.215201 -6.667588 -0.000000 0.180749 0.488698 -0.398927
7.805000 114.862469 474.799552 -0.000000 0.258326 0.155973 -0.154487 -38.113426 9.693986 -0.000000 0.189358 0.492822 -0.398820
7.810000 122.137307 461.989101 -0.000000 0.248758 0.152973 -0.154450 -38.425269 27.217609 -0.000000 0.198053 0.496530 -0.398663
7.815000 129.035562 447.670967 -0.000000 0.239002 0.150591 -0.154527 -37.117254 44.813070 -0.000000 0.206627 0.499427 -0.398531
7.820000 135.061318 431.234848 -0.000000 0.229416 0.149058 -0.154547 -34.432590 61.537592 -0.000000 0.215063 0.501612 -0.398499
7.825000 140.603710 411.732990 -0.000000 0.219568 0.148236 -0.154844 -30.682806 76.930706 -0.000000 0.223357 0.503119 -0.398370
7.830000 144.928293 388.623421 -0.000000 0.209824 0.148175 -0.155208 -26.421655 90.926587 -0.000000 0.231443 0.503894 -0.398411
7.835000 147.641507 361.511037 -0.000000 0.200271 0.148943 -0.155627 -22.212334 103.871096 -0.000000 0.239238 0.503906 -0.398399
7.840000 148.552949 330.294699 -0.000000 0.190935 0.150351 -0.156079 -18.578684 116.318247 -0.000000 0.246754 0.503082 -0.398533
7.845000 147.532636 295.255339 -0.000000 0.181907 0.152433 -0.156390 -16.030630 128.876509 -0.000000 0.254011 0.501263 -0.398896
7.850000 144.513859 257.040509 -0.000000 0.173245 0.155215 -0.156535 -15.061467 142.145757 -0.000000 0.261004 0.498508 -0.399337
7.855000 139.557409 216.588578 -0.000000 0.164946 0.158477 -0.156663 -16.117079 156.666646 -0.000000 0.267792 0.494919 -0.399797
7.860000 132.912494 175.018676 -0.000000 0.156986 0.162440 -0.156761 -19.533036 172.854290 -0.000000 0.274358 0.490343 -0.400218
7.865000 124.914798 133.608173 -0.000000 0.149212 0.167125 -0.156993 -25.508091 190.934867 -0.000000 0.280806 0.485074 -0.400651
7.870000 115.815761 93.879249 -0.000000 0.141822 0.172334 -0.157206 -34.295868 210.853370 -0.000000 0.287156 0.479033 -0.401228
7.875000 106.053217 57.222413 -0.000000 0.134608 0.178114 -0.157770 -45.849262 232.282781 -0.000000 0.293374 0.472428 -0.402048
7.880000 96.051522 24.751053 -0.000000 0.127737 0.184429 -0.157976 -59.697671 254.718692 -0.000000 0.299828 0.464935 -0.402730
7.885000 86.099521 -2.455431 -0.000000 0.121246 0.191204 -0.158111 -75.913336 277.346469 -0.000000 0.306133 0.457275 -0.402936
7.890000 76.608809 -23.960017 -0.000000 0.115204 0.198334 -0.158110 -93.868200 299.380977 -0.000000 0.312473 0.449476 -0.402970
7.895000 67.851438 -39.759915 -0.000000 0.109556 0.205833 -0.158048 -112.389336 320.231043 -0.000000 0.318714 0.440837 -0.403055
7.900000 60.096504 -49.947517 -0.000000 0.104419 0.213610 -0.157875 -131.070960 339.215801 -0.000000 0.324911 0.431964 -0.403095
7.905000 53.602665 -54.916130 -0.000000 0.099758 0.221679 -0.157790 -149.581061 355.867327 -0.000000 0.330542 0.422916 -0.403024
7.910000 48.425356 -55.442604 -0.000000 0.095473 0.230163 -0.157774 -166.633657 370.487883 -0.000000 0.336151 0.413617 -0.403158
7.915000 44.755535 -52.289227 -0.000000 0.091642 0.238905 -0.157738 -182.302198 383.194613 -0.000000 0.341040 0.403935 -0.403340
7.920000 42.543077 -46.451117 -0.000000 0.088335 0.247902 -0.157868 -195.903306 394.726264 -0.000000 0.345883 0.393984 -0.403806
7.925000 41.683417 -38.861707 -0.000000 0.085546 0.257116 -0.157917 -207.590609 405.573688 -0.000000 0.350460 0.383898 -0.403400
